<?xml version="1.0" encoding="UTF-8"?>
<svg id="_레이어_2" data-name="레이어 2" xmlns="http://www.w3.org/2000/svg" viewBox="0 0 145.37 145.37">
  <g id="_레이어_1-2" data-name="레이어 1">
    <g>
      <g>
        <path d="M59.26,56.57s-12.53,17.63,12.53,27.44c0,0,9.69-19.96-12.53-27.44" style="fill: #ffa400;"/>
        <path d="M95.9,61.21s-22.62.8-16.49,25.54c0,0,22.98-4.31,16.49-25.54" style="fill: #ffa400;"/>
        <path d="M63.4,19.97s-18.28,12.51,1.61,29.8c0,0,16.47-15.59-1.61-29.8" style="fill: #ffa400;"/>
        <path d="M127.32,61.83s-21.39-6.96-25.31,18.18c0,0,23.08,3.81,25.31-18.18" style="fill: #ffa400;"/>
        <path d="M68.77,87.57s-22.55-1.99-19.94,23.3c0,0,23.38-1.45,19.94-23.3" style="fill: #ffa400;"/>
        <path d="M52.1,84.58s-19.62-10.55-28.47,13.47c0,0,21.92,7.74,28.47-13.47" style="fill: #ffa400;"/>
        <path d="M114.51,100.18s-6.14-20.38-30.42-9c0,0,9.87,19.88,30.42,9" style="fill: #ffa400;"/>
        <path d="M137.92,94.03s-5.49-18.25-27.25-8.06c0,0,8.84,17.8,27.25,8.06" style="fill: #ffa400;"/>
        <path d="M99.72,8.88s-22.6-1.32-19.14,23.87c0,0,23.32-2.14,19.14-23.87" style="fill: #ffa400;"/>
        <path d="M28.53,58.12s-3.18,20.96,23.96,19.71c0,0-.46-21.91-23.96-19.71" style="fill: #ffa400;"/>
        <path d="M7.45,66.78s.85,17.89,23.19,12.9c0,0-4.02-18.15-23.19-12.9" style="fill: #ffa400;"/>
        <path d="M93.79,37.55s-22.5-2.38-20.39,22.95c0,0,23.41-1.04,20.39-22.95" style="fill: #ffa400;"/>
        <path d="M118.7,38.08s-22.59-1.58-19.47,23.65c0,0,23.35-1.86,19.47-23.65" style="fill: #ffa400;"/>
        <path d="M38.65,32.47s-11.87,18.04,13.55,27.02c0,0,8.94-20.27-13.55-27.02" style="fill: #ffa400;"/>
        <polygon points="75.27 93.96 71.34 136.46 83.49 136.51 81 101.85 75.27 93.96" style="fill: #ffa400;"/>
      </g>
      <rect width="145.37" height="145.37" style="fill: none;"/>
    </g>
  </g>
</svg>