<?xml version="1.0" encoding="UTF-8"?>
<svg xmlns="http://www.w3.org/2000/svg" version="1.1" viewBox="0 0 153 153">
  <defs>
    <style>
      .cls-1 {
        fill: #f9f9f9;
      }

      .cls-2 {
        fill: #000;
      }
    </style>
  </defs>
  <!-- Generator: Adobe Illustrator 28.7.1, SVG Export Plug-In . SVG Version: 1.2.0 Build 142)  -->
  <g>
    <g id="_레이어_1" data-name="레이어_1">
      <rect class="cls-1" width="153" height="153"/>
      <path fill="#f5a216" d="M22.4,46c1.2,0,2.9,0,5,0,3.6-.3,11-.9,16.3-5.1,7.7-6.3,7.1-17.8,7-19.4,0,0-29.7-1.6-28.3,24.6"/>
      <g>
        <path class="cls-2" d="M132.4,132.8H22c-.6,0-1-.4-1-1s.4-1,1-1h110.4c.6,0,1,.4,1,1s-.4,1-1,1Z"/>
        <path class="cls-2" d="M132.4,132.8c-.3,0-.5-.1-.7-.3l-13.1-13c-.4-.4-.4-1,0-1.4s1-.4,1.4,0l13.1,13c.4.4.4,1,0,1.4-.2.2-.4.3-.7.3Z"/>
      </g>
      <g>
        <path class="cls-2" d="M19.9,72.7c.9-.4,1.6-.7,2.2-1s1.2-.6,1.6-.9.8-.5,1.1-.8c.3-.3.5-.5.6-.8l-5.3.2v-1.8c-.1,0,5.7,0,5.7,0v-1.9h-5.2v-1.8h7.3v3.2c0,.9-.1,1.6-.3,2.3-.2.6-.5,1.2-1,1.7s-1.2,1-2.1,1.6c-.9.5-2.1,1.1-3.6,1.8l-1-1.7ZM36.8,75.1v7.7h-12.7v-7.7h12.7ZM26.2,80.9h8.4v-4h-8.4s0,4,0,4ZM34.7,62.5h2.1v11.5h-2.1v-4.9h-2.4v4.9h-2.1v-11.2h2.1v4.5h2.4v-4.8Z"/>
        <path class="cls-2" d="M39.7,77.3v-1.8h1.9v-9.2h-1.9v-1.8h10.2v1.8h-1.8v9.1c.4,0,.7,0,1.1,0s.7,0,1.1,0l.2,1.7c-.9,0-1.9.2-2.9.3-1,0-2,0-3.1,0h-4.8ZM44.9,75.5h1v-9.2h-2.2v9.2h1.2ZM51.5,62.9h2.1v18.9h-2.1v-10.1h-2.4v-1.9h2.4v-6.9ZM57.4,82.8h-2.1v-20.3h2.1v20.3Z"/>
        <path class="cls-2" d="M60.4,68c0-.5,0-1,.3-1.6s.5-1.1.9-1.5c.4-.5,1-.8,1.6-1.1.6-.3,1.4-.4,2.2-.4s1.6,0,2.2.4,1.2.7,1.6,1.1c.4.5.7,1,.9,1.5.2.5.3,1.1.3,1.6v1.1c0,.5,0,1-.3,1.6s-.5,1.1-.9,1.5c-.4.5-1,.8-1.6,1.1-.6.3-1.4.4-2.2.4s-1.6,0-2.2-.4c-.6-.3-1.2-.7-1.6-1.1-.4-.5-.7-1-.9-1.5s-.3-1.1-.3-1.6v-1.1ZM68.5,68c0-.3,0-.7-.2-1s-.3-.6-.5-.9-.5-.5-.9-.7-.8-.3-1.4-.3-1,0-1.4.3c-.4.2-.7.4-.9.7s-.4.6-.5.9-.2.7-.2,1v1c0,.3,0,.7.2,1,0,.3.3.6.5.9s.5.5.9.7.8.3,1.4.3,1,0,1.4-.3c.4-.2.7-.4.9-.7s.4-.6.5-.9.2-.7.2-1v-1ZM65.9,80.7h10.9v1.9h-13.1v-6.7h2.2v4.8ZM74.2,77v-14.5h2.2v14.5h-2.2Z"/>
        <path class="cls-2" d="M20.4,106.6c1.2-.7,2.2-1.3,3-1.8s1.5-1,2-1.5c.5-.4,1-.9,1.3-1.3s.5-.8.7-1.2.2-.8.3-1.2c0-.4.1-.9.1-1.4v-2h-6.9v-1.8h9.1v3.9c0,.7,0,1.3-.1,1.8,0,.5-.1,1-.3,1.5s-.4.9-.8,1.4-.8,1-1.5,1.5c-.6.5-1.4,1.1-2.3,1.7s-2.1,1.3-3.4,2.2l-1.2-1.8ZM34.2,112.8v-20.3h2.2v20.3h-2.2Z"/>
        <path class="cls-2" d="M47.8,112.8v-6.4h-8.2v-1.8h18.6v1.8h-8.2v6.4h-2.2ZM55.5,102.3h-13.3v-9h2.2v2.8h9v-2.8h2.2v9h-.1ZM44.4,100.4h9v-2.5h-9v2.5Z"/>
        <path class="cls-2" d="M64.5,95.5v-2.9h2.2v2.9h4.7v1.8h-11.7v-1.8h4.8ZM65.6,108.3c-.8,0-1.5,0-2.1-.4-.6-.2-1.1-.6-1.5-1s-.7-.9-1-1.4c-.2-.5-.3-1-.3-1.6v-1.3c0-.5,0-1.1.3-1.6s.5-1,1-1.4c.4-.4.9-.7,1.5-1,.6-.2,1.3-.4,2.1-.4s1.4,0,2.1.4c.6.2,1.1.6,1.6,1,.4.4.7.9,1,1.4s.3,1,.3,1.6v1.3c0,.5,0,1.1-.3,1.6-.2.5-.5,1-1,1.4-.4.4-.9.7-1.6,1-.7.2-1.3.4-2.1.4ZM65.6,100.3c-.9,0-1.6.2-2.1.7s-.8,1.1-.8,1.9v.8c0,.8.3,1.4.8,1.9s1.2.7,2.1.7,1.6-.2,2.1-.7.8-1.1.8-1.9v-.7c0-.8-.3-1.5-.8-1.9s-1.2-.8-2.1-.8ZM78.6,102.5h-3.1v10.3h-2.2v-20.3h2.2v8.1h3.1v1.9Z"/>
        <path class="cls-2" d="M80.5,106.6c1.2-.7,2.2-1.3,3-1.8s1.5-1,2-1.5c.5-.4,1-.9,1.3-1.3s.5-.8.7-1.2.2-.8.3-1.2c0-.4,0-.9,0-1.4v-2h-6.9v-1.8h9v3.9c0,.7,0,1.3,0,1.8,0,.5,0,1-.3,1.5s-.4.9-.8,1.4c-.3.5-.8,1-1.5,1.5-.6.5-1.4,1.1-2.3,1.7s-2.1,1.3-3.4,2.2l-1.1-1.8ZM94.2,112.8v-20.3h2.2v20.3h-2.2Z"/>
      </g>
    </g>
  </g>
</svg>