<svg width="179" height="43" viewBox="0 0 179 43" fill="none" xmlns="http://www.w3.org/2000/svg">
<g clip-path="url(#clip0_19_14977)">
<path d="M17.2893 16.0682C17.2893 16.0682 13.1046 22.0103 21.474 25.3149C21.474 25.3149 24.7076 18.5946 17.2893 16.0682Z" fill="#F5A216"/>
<path d="M29.523 17.6345C29.523 17.6345 21.9746 17.9074 24.0168 26.2447C24.0168 26.2447 31.6854 24.7894 29.523 17.6345Z" fill="#F5A216"/>
<path d="M18.6709 3.73913C18.6709 3.73913 12.5741 7.95323 19.2115 13.7741C19.2115 13.7741 24.7076 8.51915 18.6709 3.73913Z" fill="#F5A216"/>
<path d="M40.0047 17.8468C40.0047 17.8468 32.8667 15.5022 31.5553 23.9709C31.5553 23.9709 39.2539 25.2543 40.0047 17.8468Z" fill="#F5A216"/>
<path d="M20.4629 26.5175C20.4629 26.5175 12.9345 25.8505 13.8054 34.3697C13.8054 34.3697 21.6041 33.8846 20.4629 26.5175Z" fill="#F5A216"/>
<path d="M14.9067 25.5069C14.9067 25.5069 8.35934 21.9497 5.40604 30.0444C5.40604 30.0444 12.7242 32.6517 14.9067 25.5069Z" fill="#F5A216"/>
<path d="M35.7299 30.7619C35.7299 30.7619 33.6776 23.9001 25.5786 27.7302C25.5786 27.7302 28.8723 34.4303 35.7299 30.7619Z" fill="#F5A216"/>
<path d="M43.5487 28.6902C43.5487 28.6902 41.7166 22.5459 34.4585 25.9718C34.4585 25.9718 37.4118 31.9645 43.5487 28.6902Z" fill="#F5A216"/>
<path d="M30.7944 -3.23041e-07C30.7944 -3.23041e-07 23.256 -0.444653 24.4073 8.04418C24.4073 8.04418 32.186 7.32667 30.7944 -3.23041e-07Z" fill="#F5A216"/>
<path d="M7.03786 16.5937C7.03786 16.5937 5.97668 23.6576 15.0368 23.2331C15.0368 23.2331 14.8866 15.8559 7.03786 16.5937Z" fill="#F5A216"/>
<path d="M0 19.5142C0 19.5142 0.280313 25.5373 7.73865 23.8597C7.73865 23.8597 6.39715 17.7457 0 19.5142Z" fill="#F5A216"/>
<path d="M28.8122 9.66111C28.8122 9.66111 21.3038 8.86275 22.0046 17.392C22.0046 17.392 29.8133 17.0383 28.8122 9.66111Z" fill="#F5A216"/>
<path d="M37.1315 9.84301C37.1315 9.84301 29.5931 9.3074 30.6342 17.8164C30.6342 17.8164 38.4229 17.1899 37.1315 9.84301Z" fill="#F5A216"/>
<path d="M10.4116 7.95323C10.4116 7.95323 6.4472 14.0268 14.9367 17.0585C14.9367 17.0585 17.92 10.227 10.4116 7.95323Z" fill="#F5A216"/>
<path d="M22.6353 28.67L21.3238 42.9899L25.3784 43L24.5474 31.3279L22.6353 28.67Z" fill="#F5A216"/>
<path d="M66.4542 10.3685V7.45805L62.5399 6.87192L62.4898 6.99318L62.1194 7.79154L62.8302 8.05429L63.1606 8.23619C63.6611 8.51915 63.8113 8.75159 63.9514 9.00423C64.1617 9.37814 64.2017 9.651 64.2718 10.3887V29.62H65.9637L66.4643 26.5984C66.4643 26.5984 66.4643 15.9166 66.4643 15.5831H70.3586V13.7236H66.4643V10.3786L66.4542 10.3685Z" fill="black"/>
<path d="M52.9792 14.431C52.9792 13.6428 53.2695 12.8444 53.8402 12.0865C54.4108 11.3286 55.1817 10.9647 56.2128 10.9647C57.244 10.9647 58.0248 11.3286 58.5955 12.0865C59.1761 12.8545 59.4664 13.6428 59.4664 14.431C59.4564 15.2294 59.1561 16.0176 58.5855 16.7857C58.0248 17.5537 57.244 17.9276 56.2128 17.9276C55.1817 17.9276 54.4108 17.5537 53.8402 16.7857C53.2695 16.0176 52.9792 15.2294 52.9792 14.431ZM56.2028 9.20634C54.7011 9.20634 53.3897 9.72174 52.2984 10.7222C51.2072 11.7328 50.6466 13.0061 50.6466 14.5018C50.6466 15.9974 51.2072 17.2808 52.2984 18.2813C53.3897 19.2717 54.7011 19.777 56.2028 19.777C57.7045 19.777 59.0159 19.2717 60.0971 18.2611C61.1784 17.2606 61.729 15.9873 61.729 14.5018C61.709 12.9859 61.1583 11.7126 60.0771 10.7121C59.0059 9.71163 57.6945 9.20634 56.1928 9.20634" fill="black"/>
<path d="M76.5355 12.8444C76.7157 12.9758 76.7457 13.2891 76.7457 13.5316V15.8256C76.7457 16.0783 76.8058 16.2703 76.936 16.4016C77.0661 16.533 77.2363 16.5937 77.4565 16.5937H88.1385V14.8959H79.1484V13.3093H87.738V9.84301V8.34736H76.3253V10.0249H85.3353V11.662H76.065V12.612L76.2051 12.6423C76.2051 12.6423 76.2952 12.6625 76.5355 12.8444Z" fill="black"/>
<path d="M72.2808 18.4026V20.161H91.7926V18.4026H91.6124H72.2808Z" fill="black"/>
<path d="M79.2586 23.8597H85.3053V27.8414H79.2586V23.8597ZM87.4477 22.1316H76.2452V23.0411L76.3853 23.0714C76.3853 23.0714 76.4855 23.1018 76.7157 23.2837C76.8559 23.3948 76.9259 23.6172 76.9259 23.9304V28.7812C76.9259 29.0439 77.016 29.2562 77.1862 29.3977C77.3564 29.529 77.5166 29.5998 77.6668 29.5998H86.827C87.0473 29.5998 87.2375 29.529 87.3876 29.3875C87.5378 29.2461 87.6179 29.0338 87.6179 28.7812V22.1215H87.4377L87.4477 22.1316Z" fill="black"/>
<path d="M109.823 10.3685V7.45805L105.908 6.87192L105.858 6.99318L105.478 7.79154L106.189 8.05429L106.519 8.23619C107.01 8.51915 107.17 8.75159 107.32 9.00423C107.52 9.36804 107.56 9.60047 107.63 10.3887V29.62H109.322L109.823 26.5984C109.823 26.5984 109.823 15.9166 109.823 15.5831H113.717V13.7236H109.823V10.3786V10.3685Z" fill="black"/>
<path d="M103.906 17.968L102.244 18.1803C100.652 18.3622 99.2309 18.4531 97.9995 18.4531H96.5879V11.3083H103.756V9.43878H93.4444V10.4392L93.5846 10.4595C93.5846 10.4595 93.7047 10.4898 93.995 10.6616C94.1652 10.7626 94.2553 11.0456 94.2553 11.47V19.8477C94.2553 20.1004 94.3154 20.3126 94.4355 20.4642C94.5657 20.6259 94.7859 20.7067 95.1163 20.7067C97.1886 20.7067 99.2709 20.5551 101.293 20.262C103.275 19.9791 103.896 19.8578 105.688 19.4031L105.818 19.3727V17.6143L104.026 17.9377L103.916 17.9579L103.906 17.968Z" fill="black"/>
<path d="M114.978 18.2005V19.9286H123.969V24.8096H125.981L126.391 22.9603V19.9286H135.251V18.2005H135.081H114.978Z" fill="black"/>
<path d="M127.302 14.5422C126.722 15.1182 126.031 15.4113 125.23 15.4113C124.429 15.4113 123.738 15.1283 123.158 14.5422C122.577 13.9561 122.287 13.279 122.287 12.4705C122.287 11.662 122.577 10.985 123.158 10.3988C123.748 9.81269 124.419 9.51962 125.23 9.51962C126.041 9.51962 126.732 9.81269 127.302 10.3988C127.893 10.985 128.173 11.662 128.173 12.4705C128.173 13.279 127.883 13.9561 127.302 14.5422ZM121.646 15.8559C122.757 16.6846 123.958 17.109 125.23 17.109C126.501 17.109 127.733 16.6846 128.844 15.8559C129.975 15.0172 130.556 13.8853 130.556 12.5109C130.556 11.1365 129.985 9.99459 128.844 9.11539C127.713 8.2463 126.501 7.81175 125.22 7.81175C123.938 7.81175 122.737 8.2463 121.626 9.11539C120.505 9.99459 119.934 11.1365 119.934 12.5109C119.934 13.8853 120.505 15.0071 121.636 15.8559" fill="black"/>
<path d="M121.696 24.6479V22.8491L118.753 22.6066L118.703 22.7177L118.322 23.5262L118.522 23.5767C118.572 23.5969 118.713 23.6475 119.023 23.8597C119.223 24.0012 119.323 24.3043 119.323 24.7591V28.9631C119.323 29.236 119.403 29.428 119.564 29.5492C119.704 29.6503 119.864 29.7109 120.034 29.7109H131.317V27.8818H121.686V24.6378L121.696 24.6479Z" fill="black"/>
<path d="M146.053 13.5518C146.544 12.5716 146.894 11.5509 147.094 10.5201C147.114 10.4797 147.114 10.4291 147.114 10.3786C147.114 10.2978 147.094 10.2068 147.034 10.1361C146.924 9.97438 146.794 9.94407 146.714 9.94407H138.435V11.7732H144.041C143.57 13.5821 142.659 15.2698 141.308 16.7756C139.896 18.3521 138.355 19.6355 136.723 20.5854L136.503 20.7168L137.824 21.788L137.924 21.7375C138.895 21.212 139.866 20.5652 140.827 19.8174C141.738 19.1201 142.579 18.3318 143.35 17.483C143.58 17.7558 146.864 21.5657 146.864 21.5657L148.636 19.7972C148.636 19.7972 144.612 16.4016 144.371 16.1995C145.012 15.3608 145.573 14.4714 146.033 13.5518" fill="black"/>
<path d="M152.37 6.78096L152.31 6.87192L151.85 7.56921L152.55 7.85217L153.071 8.19577C153.281 8.39788 153.371 8.53937 153.542 8.88296C153.702 9.21645 153.782 9.6611 153.782 10.227V14.4917H151.399V10.9749L151.389 8.16545L147.845 7.57932L147.345 8.38778L147.905 8.57979L148.256 8.75159L148.526 8.9436C148.786 9.16592 148.896 9.34783 149.047 9.69142C149.177 10.0148 149.257 10.4595 149.257 11.0254V28.9429H151.009L151.399 26.1133C151.399 26.1133 151.399 16.7452 151.399 16.4118H153.782V29.6907H155.504L155.954 26.942V10.1866V7.22562L152.38 6.78096H152.37Z" fill="black"/>
<path d="M175.106 13.7135V7.45805L171.201 6.87192L171.141 6.99318L170.761 7.78143L171.341 8.02397L171.812 8.2463C172.293 8.51915 172.453 8.75159 172.603 9.00423C172.803 9.36804 172.843 9.60047 172.913 10.3887V24.6884H174.605L175.106 21.6667C175.106 21.6667 175.106 15.9065 175.106 15.573H179V13.7135H175.106Z" fill="black"/>
<path d="M170.941 18.534L171.982 18.2712V18.1398V16.5431L171.071 16.7452C170.19 16.9372 169.79 17.0282 168.508 17.1798C166.957 17.3617 165.565 17.4526 164.354 17.4526H162.982V11.47H169.98V9.64089H159.899V10.6212L160.039 10.6515C160.039 10.6515 160.159 10.6818 160.439 10.8536C160.639 10.9749 160.69 11.3488 160.69 11.6418V18.8371C160.69 19.0898 160.75 19.2919 160.87 19.4435C160.99 19.6052 161.21 19.6759 161.53 19.6759C163.563 19.6759 165.595 19.5344 167.567 19.2414C169.169 19.0089 169.88 18.827 170.951 18.5441" fill="black"/>
<path d="M167.307 24.3448C167.307 24.0113 167.337 23.6879 167.387 23.3746L167.487 22.839L167.537 22.556L167.347 22.5358L164.404 22.3034L164.354 22.4045L163.963 23.1927L164.173 23.2533C164.244 23.2736 164.394 23.3342 164.694 23.5363C164.894 23.6677 165.004 23.9709 165.004 24.4357V28.9732C165.004 29.2461 165.084 29.4381 165.245 29.5593C165.385 29.6604 165.545 29.721 165.715 29.721H176.868V27.8919H167.317V24.3448H167.307Z" fill="black"/>
<path d="M54.3007 42.8989H53.3696V35.6026C53.3696 35.5521 53.3596 35.5015 53.3196 35.4712C53.2795 35.4409 53.2295 35.4207 53.1794 35.4207H51.948C51.6878 35.4207 51.4975 35.4813 51.3674 35.6127C51.2373 35.734 51.1171 35.9159 51.017 36.1483H50.6466L50.7367 34.7335H56.9737L57.0538 36.1483H56.6933C56.5832 35.9159 56.4731 35.734 56.343 35.6127C56.2128 35.4914 56.0126 35.4207 55.7623 35.4207H54.5209C54.5209 35.4207 54.4308 35.4409 54.3808 35.4712C54.3307 35.5116 54.3107 35.5521 54.3107 35.6026V42.8989H54.3007Z" fill="#78777A"/>
<path d="M62.9804 42.8989H62.0794V41.9894L62.0894 39.9177C62.0894 39.5135 62.0093 39.1598 61.8591 38.8364C61.7089 38.5232 61.3886 38.3412 60.9181 38.3109C60.5577 38.2806 60.1973 38.4221 59.8168 38.7354C59.4464 39.0487 59.2562 39.4327 59.2562 39.8874V41.9793V42.8888H58.3752V35.7744C58.3752 35.5925 58.3352 35.451 58.2651 35.36C58.195 35.2691 58.0749 35.2186 57.9147 35.2186H57.6144L57.7746 34.8345L59.2762 34.6526V38.3109C59.5666 38.028 59.8569 37.836 60.1472 37.7248C60.4375 37.6136 60.6878 37.5631 60.9181 37.5631C61.5988 37.5631 62.1094 37.7652 62.4598 38.1796C62.8102 38.5939 62.9904 39.1598 62.9904 39.8874V42.8989H62.9804Z" fill="#78777A"/>
<path d="M67.9359 38.604C67.6356 38.321 67.2852 38.1695 66.8947 38.1695C66.4743 38.1695 66.1139 38.321 65.8135 38.6444C65.5132 38.9577 65.333 39.3518 65.2429 39.8369H68.1461C68.2262 39.8369 68.2863 39.8268 68.3263 39.7965C68.3664 39.7662 68.3864 39.7156 68.3864 39.6449C68.3864 39.2407 68.2262 38.8971 67.9259 38.604M65.2329 40.5544C65.293 41.0193 65.4832 41.4134 65.8135 41.757C66.1439 42.0905 66.5444 42.2623 67.0149 42.2623C67.3252 42.2623 67.6256 42.2016 67.9259 42.0804C68.2162 41.9692 68.4765 41.8176 68.6767 41.6357L69.0672 42.3734C68.8169 42.5553 68.5065 42.7069 68.1461 42.8181C67.7857 42.9293 67.3653 42.9899 66.8947 42.9899C66.1739 42.9899 65.5532 42.7271 65.0126 42.2118C64.472 41.6964 64.2017 41.0092 64.2017 40.1704C64.2017 39.4226 64.462 38.7859 65.0126 38.2503C65.5432 37.7147 66.1839 37.4519 66.9248 37.4519C67.5855 37.4519 68.1662 37.6743 68.6667 38.129C69.1573 38.5838 69.4075 39.2508 69.4075 40.1401C69.4075 40.2714 69.3775 40.3725 69.2974 40.4331C69.2273 40.5039 69.1272 40.5241 69.0071 40.5241H65.2529L65.2329 40.5544Z" fill="#78777A"/>
<path d="M75.6846 39.0082V42.2118H77.837C78.3375 42.2118 78.748 42.0602 79.0684 41.757C79.3787 41.4538 79.5389 41.0597 79.5389 40.5746C79.5389 40.0592 79.3487 39.6651 78.9682 39.3922C78.5878 39.1295 78.2074 38.9981 77.827 38.9981H75.6946L75.6846 39.0082ZM75.8848 35.4207C75.8848 35.4207 75.7947 35.4409 75.7446 35.4712C75.7046 35.5116 75.6846 35.5521 75.6846 35.6026V38.3008H77.3364C77.7669 38.3008 78.1473 38.1694 78.4777 37.9067C78.8081 37.6439 78.9782 37.2801 78.9782 36.8052C78.9782 36.2797 78.788 35.9159 78.4076 35.7137C78.0272 35.5217 77.6368 35.4207 77.2363 35.4207H75.8848ZM74.7836 41.8176V36.2494C74.7836 35.9563 74.7435 35.7137 74.6634 35.5419C74.5833 35.36 74.3831 35.2388 74.0828 35.168L73.7824 35.0973L73.9526 34.7335H77.4465C78.1073 34.7335 78.6879 34.9154 79.1985 35.2792C79.7091 35.643 79.9694 36.1483 79.9694 36.8153C79.9694 37.2094 79.8692 37.553 79.679 37.8562C79.4888 38.1492 79.2085 38.4019 78.8681 38.604C79.2586 38.7051 79.649 38.9375 80.0194 39.2811C80.3898 39.6247 80.57 40.0794 80.57 40.6353C80.57 41.1608 80.3698 41.666 79.9694 42.1612C79.5789 42.6564 78.8982 42.909 77.9371 42.909H74.7936V41.8277L74.7836 41.8176Z" fill="#78777A"/>
<path d="M85.1251 38.604C84.8148 38.321 84.4744 38.1695 84.0839 38.1695C83.6635 38.1695 83.3031 38.321 83.0127 38.6444C82.7124 38.9577 82.5322 39.3518 82.4421 39.8369H85.3453C85.4254 39.8369 85.4855 39.8268 85.5256 39.7965C85.5656 39.7662 85.5856 39.7156 85.5856 39.6449C85.5856 39.2407 85.4354 38.8971 85.1251 38.604ZM82.4321 40.5544C82.4922 41.0193 82.6824 41.4134 83.0127 41.757C83.3431 42.0905 83.7336 42.2623 84.2141 42.2623C84.5244 42.2623 84.8248 42.2016 85.1251 42.0804C85.4154 41.9692 85.6657 41.8176 85.8759 41.6357L86.2664 42.3734C86.0161 42.5553 85.7058 42.7069 85.3554 42.8181C84.995 42.9293 84.5745 42.9899 84.094 42.9899C83.3832 42.9899 82.7525 42.7271 82.2119 42.2118C81.6712 41.6964 81.4009 41.0092 81.4009 40.1704C81.4009 39.4226 81.6712 38.7859 82.2018 38.2503C82.7424 37.7147 83.3832 37.4519 84.114 37.4519C84.7747 37.4519 85.3554 37.6743 85.8559 38.129C86.3565 38.5838 86.5967 39.2508 86.5967 40.1401C86.5967 40.2714 86.5567 40.3725 86.4866 40.4331C86.4165 40.5039 86.3164 40.5241 86.1963 40.5241H82.4421L82.4321 40.5544Z" fill="#78777A"/>
<path d="M91.7024 39.5741C91.6324 39.2204 91.4422 38.9072 91.1018 38.6545C90.7714 38.4019 90.431 38.2705 90.0906 38.2705C89.6902 38.2705 89.3098 38.4524 88.9394 38.796C88.5689 39.1497 88.3887 39.6449 88.3887 40.2816C88.3887 40.8475 88.5589 41.3123 88.8993 41.6761C89.2397 42.0501 89.6402 42.2421 90.0806 42.2421C90.381 42.2421 90.6813 42.1511 90.9917 41.9793C91.292 41.8075 91.5323 41.5751 91.7024 41.2719V39.564V39.5741ZM92.6035 42.8989H91.7024V42.3532C91.4321 42.6059 91.1318 42.7777 90.8115 42.8787C90.4811 42.9798 90.1707 43.0101 89.8904 42.9899C89.1796 42.9293 88.589 42.6564 88.1184 42.1612C87.6479 41.6761 87.4177 41.0496 87.4177 40.2917C87.4177 39.5337 87.6679 38.8566 88.1785 38.3311C88.6891 37.8056 89.2797 37.5328 89.9705 37.5328C90.1808 37.5328 90.441 37.5732 90.7814 37.6642C91.1218 37.7551 91.4021 37.9269 91.6324 38.1897L91.6924 37.6035H92.6035M92.6035 38.5737V42.04Z" fill="#78777A"/>
<path d="M95.1463 38.5434V40.6858C95.1463 41.09 95.2364 41.4336 95.3966 41.7166C95.5568 41.9995 95.8771 42.1511 96.3677 42.1915C96.698 42.2118 97.0184 42.1006 97.3388 41.858C97.6491 41.6256 97.8693 41.3427 97.9995 41.0395V38.5838C97.9995 38.412 97.9695 38.2806 97.8994 38.1796C97.8393 38.0785 97.7292 38.028 97.579 38.028H97.3388L97.4989 37.6439L98.8805 37.462V42.8989H97.9895V42.2421C97.6591 42.5351 97.3588 42.7373 97.0885 42.8282C96.8182 42.9192 96.5779 42.9697 96.3677 42.9697C95.7069 42.9697 95.1864 42.7878 94.8159 42.4341C94.4455 42.0804 94.2653 41.5549 94.2653 40.8576V38.6343C94.2653 38.4524 94.2253 38.3109 94.1552 38.22C94.0851 38.1189 93.965 38.0785 93.8048 38.0785H93.4945L93.6546 37.6945L95.1463 37.5126" fill="#78777A"/>
<path d="M101.513 36.9467V37.6035H102.845V38.321H101.513V41.3022C101.513 41.5953 101.553 41.8277 101.644 41.9692C101.734 42.1107 101.854 42.2016 102.004 42.2421C102.114 42.2724 102.254 42.2825 102.404 42.2623C102.555 42.2421 102.705 42.1915 102.845 42.1208L102.935 42.808C102.795 42.8585 102.645 42.9091 102.464 42.9394C102.284 42.9697 102.094 42.9798 101.894 42.9697C101.563 42.9596 101.263 42.8181 101.003 42.5553C100.743 42.3027 100.612 41.9389 100.612 41.474V38.321H99.6814V37.6035H100.612V37.0275C100.612 36.8456 100.582 36.7041 100.512 36.6132C100.442 36.5222 100.322 36.4717 100.152 36.4717H99.8616L100.012 36.0877L101.513 35.9058" fill="#78777A"/>
<path d="M105.097 38.513V41.9793ZM105.097 42.8787H104.206V38.604C104.206 38.412 104.166 38.2806 104.096 38.1897C104.016 38.0987 103.906 38.0482 103.746 38.0482H103.436L103.596 37.6541L105.107 37.4722V42.0096V42.8787H105.097ZM105.057 36.0674C104.917 36.2089 104.747 36.2797 104.557 36.2797C104.367 36.2797 104.196 36.2089 104.046 36.0674C103.896 35.926 103.826 35.7542 103.826 35.5622C103.826 35.3702 103.896 35.1984 104.046 35.0569C104.196 34.9154 104.357 34.8447 104.557 34.8447C104.757 34.8447 104.917 34.9255 105.057 35.0569C105.208 35.1984 105.278 35.3702 105.278 35.5622C105.278 35.7542 105.208 35.926 105.057 36.0674Z" fill="#78777A"/>
<path d="M107.72 42.8989H106.829V42.1814V38.3109H105.888V37.5934H106.829V36.694C106.829 35.9361 107.02 35.3904 107.41 35.0569C107.79 34.7234 108.211 34.5617 108.661 34.5617C108.862 34.5617 109.032 34.5819 109.202 34.6223C109.372 34.6628 109.502 34.7032 109.612 34.7436L109.282 35.4308C109.192 35.3702 109.102 35.3297 109.002 35.2893C108.902 35.2489 108.802 35.2287 108.691 35.2287C108.451 35.2287 108.231 35.3196 108.031 35.5116C107.82 35.7036 107.72 35.9765 107.72 36.3504V37.6136H109.122V38.3311H107.72V42.2016V42.9192V42.8989Z" fill="#78777A"/>
<path d="M111.244 38.5434V40.6858C111.244 41.09 111.314 41.4336 111.485 41.7166C111.645 41.9995 111.965 42.1511 112.446 42.1915C112.776 42.2118 113.096 42.1006 113.417 41.858C113.727 41.6256 113.947 41.3427 114.077 41.0395V38.5838C114.077 38.412 114.047 38.2806 113.977 38.1796C113.917 38.0785 113.807 38.028 113.667 38.028H113.417L113.577 37.6439L114.958 37.462V42.8989H114.067V42.2421C113.737 42.5351 113.437 42.7373 113.166 42.8282C112.896 42.9192 112.656 42.9697 112.446 42.9697C111.785 42.9697 111.264 42.7878 110.894 42.4341C110.523 42.0804 110.343 41.5549 110.343 40.8576V38.6343C110.343 38.4524 110.303 38.3109 110.233 38.22C110.163 38.1189 110.043 38.0785 109.883 38.0785H109.572L109.733 37.6945L111.224 37.5126" fill="#78777A"/>
<path d="M117.531 35.6935V42.8888H116.64V35.7744C116.64 35.5925 116.6 35.451 116.54 35.3499C116.47 35.259 116.35 35.2085 116.18 35.2085H115.889L116.04 34.8244L117.541 34.6425" fill="#78777A"/>
<path d="M157.456 39.5741C157.396 39.2204 157.196 38.9072 156.865 38.6545C156.535 38.4019 156.195 38.2705 155.854 38.2705C155.454 38.2705 155.073 38.4524 154.703 38.796C154.332 39.1497 154.152 39.6449 154.152 40.2816C154.152 40.8475 154.322 41.3123 154.663 41.6761C155.003 42.0501 155.394 42.2421 155.844 42.2421C156.144 42.2421 156.445 42.1511 156.755 41.9793C157.055 41.8075 157.296 41.5751 157.466 41.2719V39.564L157.456 39.5741ZM158.357 42.8989H157.456V42.3532C157.196 42.6059 156.895 42.7777 156.565 42.8787C156.235 42.9798 155.924 43.0101 155.654 42.9899C154.933 42.9293 154.342 42.6564 153.882 42.1612C153.411 41.6761 153.181 41.0496 153.181 40.2917C153.181 39.5337 153.431 38.8566 153.942 38.3311C154.453 37.8056 155.043 37.5328 155.734 37.5328C155.934 37.5328 156.205 37.5732 156.545 37.6642C156.885 37.7551 157.166 37.9269 157.396 38.1897L157.456 37.6035H158.367M158.357 38.5737V42.04Z" fill="#78777A"/>
<path d="M135.802 38.5434V40.6858C135.802 41.09 135.892 41.4336 136.042 41.7166C136.202 41.9995 136.523 42.1511 137.013 42.1915C137.343 42.2118 137.664 42.1006 137.974 41.858C138.285 41.6256 138.515 41.3427 138.645 41.0395V38.5838C138.645 38.412 138.615 38.2806 138.545 38.1796C138.475 38.0785 138.375 38.028 138.224 38.028H137.974L138.134 37.6439L139.526 37.462V42.8989H138.635V42.2421C138.305 42.5351 138.004 42.7373 137.734 42.8282C137.464 42.9192 137.223 42.9697 137.013 42.9697C136.352 42.9697 135.832 42.7878 135.461 42.4341C135.091 42.0804 134.901 41.5549 134.901 40.8576V38.6343C134.901 38.4524 134.861 38.3109 134.791 38.22C134.721 38.1189 134.6 38.0785 134.44 38.0785H134.14L134.3 37.6945L135.792 37.5126" fill="#78777A"/>
<path d="M160.97 36.9467V37.6035H162.301V38.321H160.97V41.3022C160.97 41.5953 161.01 41.8277 161.1 41.9692C161.19 42.1107 161.31 42.2016 161.45 42.2421C161.571 42.2724 161.701 42.2825 161.861 42.2623C162.011 42.2421 162.161 42.1915 162.301 42.1208L162.401 42.808C162.261 42.8585 162.101 42.9091 161.931 42.9394C161.751 42.9697 161.561 42.9798 161.36 42.9697C161.03 42.9596 160.73 42.8181 160.469 42.5553C160.209 42.3027 160.079 41.9389 160.079 41.474V38.321H159.138V37.6035H160.079V37.0275C160.079 36.8456 160.039 36.7041 159.979 36.6132C159.909 36.5222 159.789 36.4717 159.618 36.4717H159.328L159.468 36.0877L160.97 35.9058" fill="#78777A"/>
<path d="M164.564 38.513V41.9793ZM164.564 42.8787H163.673V38.604C163.673 38.412 163.633 38.2806 163.553 38.1897C163.483 38.0987 163.363 38.0482 163.202 38.0482H162.902L163.062 37.6541L164.574 37.4722V42.0096V42.8787H164.564ZM164.534 36.0674C164.394 36.2089 164.223 36.2797 164.033 36.2797C163.843 36.2797 163.663 36.2089 163.523 36.0674C163.373 35.926 163.302 35.7542 163.302 35.5622C163.302 35.3702 163.373 35.1984 163.523 35.0569C163.673 34.9154 163.833 34.8447 164.033 34.8447C164.234 34.8447 164.394 34.9255 164.534 35.0569C164.674 35.1984 164.744 35.3702 164.744 35.5622C164.744 35.7542 164.674 35.926 164.534 36.0674Z" fill="#78777A"/>
<path d="M124.289 42.8989H123.378V41.8176V36.2494C123.378 35.9563 123.338 35.7137 123.258 35.5419C123.178 35.36 122.987 35.2388 122.677 35.168L122.367 35.0973L122.537 34.7335H128.163L128.243 36.118H127.883C127.783 35.8855 127.663 35.7138 127.532 35.5925C127.402 35.4813 127.202 35.4207 126.952 35.4207H124.489C124.439 35.4207 124.389 35.4409 124.349 35.4712C124.309 35.5116 124.289 35.5521 124.289 35.6026V38.1694H126.822C126.972 38.1694 127.122 38.1694 127.282 38.1492C127.442 38.1391 127.593 38.1189 127.733 38.0987V38.9779C127.603 38.9577 127.452 38.9476 127.292 38.9274C127.132 38.9173 126.972 38.9072 126.822 38.9072H124.289V41.8277V42.909V42.8989Z" fill="#78777A"/>
<path d="M132.198 38.7758C131.877 38.3817 131.477 38.1897 130.996 38.1897C130.516 38.1897 130.095 38.3817 129.785 38.7758C129.475 39.1699 129.314 39.655 129.314 40.2411C129.314 40.8273 129.475 41.3022 129.785 41.6863C130.095 42.0804 130.496 42.2724 130.996 42.2724C131.497 42.2724 131.897 42.0703 132.208 41.6863C132.518 41.3022 132.668 40.8172 132.668 40.2411C132.668 39.6651 132.508 39.1598 132.188 38.7657M132.898 42.2016C132.378 42.7271 131.747 42.9798 130.996 42.9798C130.246 42.9798 129.625 42.717 129.104 42.2016C128.584 41.6863 128.313 41.0395 128.313 40.2512C128.313 39.463 128.574 38.796 129.104 38.2705C129.625 37.7551 130.256 37.4823 130.996 37.4823C131.737 37.4823 132.378 37.745 132.898 38.2705C133.419 38.796 133.679 39.4529 133.679 40.2512C133.679 41.0496 133.419 41.6863 132.898 42.2016Z" fill="#78777A"/>
<path d="M145.813 42.8888H144.932V39.9076C144.932 39.5034 144.862 39.1396 144.712 38.8263C144.562 38.513 144.251 38.3311 143.771 38.3008C143.42 38.2705 143.06 38.412 142.679 38.7253C142.309 39.0385 142.119 39.4226 142.119 39.8773V41.9692V42.8787H141.218V38.5939C141.218 38.4019 141.198 38.2604 141.128 38.1796C141.068 38.0886 140.937 38.0381 140.777 38.0381H140.457L140.617 37.6439L142.249 37.462C142.229 37.5328 142.219 37.6439 142.189 37.7854C142.169 37.9269 142.139 38.0987 142.089 38.3109C142.409 38.0078 142.709 37.8056 143 37.7046C143.29 37.6035 143.54 37.5429 143.771 37.5429C144.441 37.5429 144.952 37.745 145.312 38.1593C145.663 38.5737 145.833 39.1396 145.833 39.8672V41.9692V42.8787L145.813 42.8888Z" fill="#78777A"/>
<path d="M176.868 42.8888H175.977V39.9076C175.977 39.5034 175.907 39.1396 175.756 38.8263C175.606 38.513 175.296 38.3311 174.815 38.3008C174.465 38.2705 174.095 38.412 173.724 38.7253C173.344 39.0385 173.153 39.4226 173.153 39.8773V41.9692V42.8787H172.252V38.5939C172.252 38.4019 172.232 38.2604 172.162 38.1796C172.092 38.0886 171.982 38.0381 171.812 38.0381H171.492L171.652 37.6439L173.284 37.462C173.264 37.5328 173.254 37.6439 173.224 37.7854C173.204 37.9269 173.163 38.0987 173.123 38.3109C173.444 38.0078 173.744 37.8056 174.034 37.7046C174.325 37.6035 174.585 37.5429 174.805 37.5429C175.476 37.5429 175.987 37.745 176.337 38.1593C176.687 38.5737 176.858 39.1396 176.858 39.8672V41.9692V42.8787L176.868 42.8888Z" fill="#78777A"/>
<path d="M151.169 39.7156C151.089 39.2912 150.889 38.9476 150.568 38.6747C150.248 38.4019 149.917 38.2705 149.567 38.2705C149.127 38.2705 148.726 38.4423 148.376 38.796C148.025 39.1497 147.855 39.6449 147.855 40.2816C147.855 40.8778 148.015 41.3528 148.316 41.7065C148.626 42.0602 149.037 42.2421 149.557 42.2421C149.877 42.2421 150.188 42.1612 150.468 41.9894C150.748 41.8176 150.989 41.5751 151.169 41.2517V39.7257V39.7156ZM152.04 35.6935V42.8888H151.159V42.3229C150.919 42.5655 150.628 42.7372 150.268 42.8383C149.907 42.9394 149.607 42.9798 149.347 42.9596C148.636 42.909 148.035 42.6362 147.565 42.1511C147.094 41.666 146.864 41.0395 146.864 40.2816C146.864 39.5236 147.114 38.887 147.625 38.3412C148.136 37.7955 148.736 37.5227 149.427 37.5227C149.627 37.5227 149.907 37.5732 150.258 37.6844C150.608 37.7955 150.909 37.9572 151.159 38.1998V35.7845C151.159 35.6026 151.129 35.4611 151.059 35.36C150.989 35.2691 150.869 35.2186 150.698 35.2186H150.408L150.558 34.8345L152.04 34.6526" fill="#78777A"/>
<path d="M169.529 38.7758C169.209 38.3817 168.809 38.1897 168.328 38.1897C167.848 38.1897 167.427 38.3817 167.117 38.7758C166.806 39.1699 166.646 39.655 166.646 40.2411C166.646 40.8273 166.806 41.3022 167.117 41.6863C167.427 42.0804 167.838 42.2724 168.328 42.2724C168.819 42.2724 169.229 42.0703 169.539 41.6863C169.85 41.3022 170.01 40.8172 170.01 40.2411C170.01 39.6651 169.85 39.1598 169.529 38.7657M170.23 42.2016C169.71 42.7271 169.079 42.9798 168.338 42.9798C167.597 42.9798 166.967 42.717 166.446 42.2016C165.915 41.6863 165.655 41.0395 165.655 40.2512C165.655 39.463 165.915 38.796 166.446 38.2705C166.967 37.7551 167.597 37.4823 168.338 37.4823C169.079 37.4823 169.71 37.745 170.23 38.2705C170.751 38.796 171.011 39.4529 171.011 40.2512C171.011 41.0496 170.751 41.6863 170.23 42.2016Z" fill="#78777A"/>
</g>
<defs>
<clipPath id="clip0_19_14977">
<rect width="179" height="43" fill="white"/>
</clipPath>
</defs>
</svg>
