<?xml version="1.0" encoding="UTF-8"?>
<svg id="_레이어_2" xmlns="http://www.w3.org/2000/svg" version="1.1" viewBox="0 0 71 70.6">
  <!-- Generator: Adobe Illustrator 29.5.0, SVG Export Plug-In . SVG Version: 2.1.0 Build 137)  -->
  <defs>
    <style>
      .st0 {
        fill: #fff;
      }

      .st1 {
        fill: #f5a216;
      }
    </style>
  </defs>
  <path class="st0" d="M35.9.4l1.5,5.2,2.1-4.9c.2-.4.8-.3.8.1l.8,5.3,2.7-4.6c.2-.4.8-.2.8.2v5.4l3.4-4.3c.3-.3.8,0,.8.3l-.5,5.3,3.8-3.8c.3-.3.8,0,.7.4l-1.2,5.2,4.2-3.3c.3-.3.8,0,.7.5l-1.8,5,4.6-2.8c.4-.2.8.2.6.6l-2.5,4.8,4.9-2.2c.4-.2.8.3.5.6l-3,4.4,5.1-1.5c.4-.1.7.4.5.7l-3.6,4,5.3-.9c.4,0,.7.5.4.8l-4,3.5,5.4-.2c.4,0,.6.6.3.8l-4.5,3,5.3.5c.4,0,.6.6.2.8l-4.8,2.4,5.2,1.1c.4,0,.5.7,0,.8l-5.1,1.8,5.1,1.8c.4,0,.4.7,0,.8l-5.2,1.1,4.8,2.4c.4.2.3.8-.2.8l-5.3.5,4.5,3c.4.2.2.8-.3.8l-5.4-.2,4,3.5c.3.3,0,.8-.4.8l-5.3-.9,3.6,4c.3.3,0,.8-.5.7l-5.1-1.5,3,4.4c.2.4,0,.8-.5.6l-4.9-2.2,2.5,4.8c.2.4-.2.8-.6.6l-4.6-2.8,1.8,5c.2.4-.3.8-.7.5l-4.2-3.3,1.2,5.2c0,.4-.4.7-.7.4l-3.8-3.8.5,5.3c0,.4-.5.7-.8.3l-3.3-4.3v5.4c0,.4-.7.6-1,.2l-2.7-4.6-.8,5.3c0,.4-.7.5-.8,0l-2.1-4.9-1.5,5.2c0,.4-.7.4-.8,0l-1.5-5.2-2.1,4.9c-.2.4-.8.3-.8,0l-.8-5.3-2.7,4.6c-.2.4-.8.2-.8-.2v-5.4c-.1,0-3.4,4.3-3.4,4.3-.3.3-.8,0-.8-.3l.5-5.3-3.8,3.8c-.3.3-.8,0-.7-.4l1.2-5.2-4.2,3.3c-.3.3-.8,0-.7-.5l1.8-5-4.6,2.8c-.4.2-.8-.2-.6-.6l2.5-4.8-4.9,2.2c-.4.2-.8-.3-.5-.6l3-4.4-5.1,1.5c-.4,0-.7-.4-.5-.7l3.6-4-5.3.9c-.4,0-.7-.5-.4-.8l4-3.5-5.4.2c-.4,0-.6-.6-.3-.8l4.5-3-5.3-.5c-.4,0-.6-.6-.2-.8l4.8-2.4-5.2-1.1c-.4,0-.5-.7,0-.8l5.1-1.8-5.1-1.8c-.4,0-.4-.7,0-.8l5.2-1.1-4.8-2.4c-.4-.2-.3-.8.2-.8l5.3-.5-4.5-3c-.4-.2-.2-.8.3-.8l5.4.2-4-3.5c-.3-.3,0-.8.4-.8l5.3.9-3.6-4c-.3-.3,0-.8.5-.7l5.1,1.5-3-4.4c-.2-.4.1-.8.5-.6l4.9,2.2-2.5-4.8c-.2-.4.2-.8.6-.6l4.6,2.8-1.8-5c-.2-.4.3-.8.7-.5l4.2,3.3-1.2-5.2c0-.4.4-.7.7-.4l3.8,3.8-.5-5.3c0-.4.5-.7.8-.3l3.3,4.3V1.7c.1-.4.7-.6,1-.2l2.7,4.6.8-5.3c0-.4.7-.5.8-.1l2.1,4.9,1.5-5.2c0-.4.7-.4.8,0h0Z"/>
  <path d="M24,30.9h.8c.4,0,.7,0,.9-.2s.3-.3.4-.7h-2.1v-.7h2.1v-.9h-2.1v-.7h3v1.5c0,.4,0,.8-.2,1,0,.3-.3.5-.4.7-.2.2-.4.3-.7.4h-1.7v-.7h0ZM24.7,35c-.5,0-.9-.3-.9-.9v-2h6.7v2.7h-5.8ZM24.8,34.2c0,0,0,.2.2.2h4.7v-1.4h-4.9s0,1.2,0,1.2ZM29.7,30.1h-1v1.5h-.9v-3.9h.9v1.5h1v-1.5h.9v3.9h-.9v-1.5Z"/>
  <path d="M35.1,28.5v5.8h.5v.7h-3.5v-.7h.5v-5.8h-.5v-.7h3.4v.7h-.5,0ZM34.3,34.3v-5.8h-.8v5.8h.8ZM36.2,31.6h-.8v-.8h.8v-3.1h.9v7.2h-.9v-3.4h0ZM38,27.8h.9v7.2h-.9s0-7.2,0-7.2Z"/>
  <path d="M42.2,31.7c-.3,0-.6,0-.8-.2-.3,0-.4-.3-.6-.4s-.3-.3-.3-.6-.2-.5-.2-.8,0-.5.2-.8.2-.4.3-.6.3-.3.6-.4.5-.2.8-.2h.8c.3,0,.6,0,.8.2.3,0,.4.3.6.4s.3.3.3.6.2.5.2.8,0,.5-.2.8-.2.4-.3.6-.3.3-.6.4-.5.2-.8.2h-.8ZM47.2,35h-5.9c-.5,0-.9-.3-.9-.9v-1.8h.9v1.7c0,0,0,.2.2.2h5.7v.7h0ZM42.9,31c.3,0,.5,0,.8-.3.2-.3.3-.5.3-.9s0-.7-.3-.9c-.2-.3-.4-.3-.8-.3h-.8c-.3,0-.5,0-.8.3s-.3.5-.3.9,0,.7.3.9c.2.3.4.3.8.3h.8ZM46.3,27.8h.9v5h-.9v-5Z"/>
  <path d="M19.8,43.8c.5,0,.9-.2,1.4-.3s.8-.4,1-.8.5-.8.7-1.2.3-1,.3-1.5v-1.9h-3.3v-.7h4.1v2.6c0,.7,0,1.3-.3,1.9s-.5,1-.9,1.5-.9.7-1.4.9-1,.3-1.6.4c0,0,0-.9,0-.9ZM25.6,37.3h.9v7.2h-.9s0-7.2,0-7.2Z"/>
  <path d="M33.9,38.4v-1.1h.9v3.8h-6c-.5,0-.9-.3-.9-.9v-3h.9v1.1h5.1ZM31.9,42.7v1.8h-.9v-1.8h-3v-.7h6.9v.7h-3ZM33.9,39.2h-5.1v1c0,0,0,.2.2.2h4.9v-1.2Z"/>
  <path d="M36.2,38.7v-.7h1.6v-.9h.9v.9h1.7v.7h-4.2ZM38.4,44.6c-.3,0-.6,0-.9-.2-.3,0-.4-.3-.6-.4s-.3-.4-.3-.6c0-.3-.2-.5-.2-.9v-1.3c0-.3,0-.6.2-.9,0-.3.3-.4.3-.6.2-.2.3-.3.6-.4s.5-.2.9-.2.6,0,.9.2c.3,0,.4.3.7.4s.3.4.4.6c0,.3.2.5.2.9v1.3c0,.3,0,.6-.2.9,0,.3-.3.4-.4.6s-.4.3-.7.4-.5.2-.9.2ZM38.4,43.9c.4,0,.7,0,.9-.3.2-.3.3-.5.3-.9v-1.5c0-.3,0-.7-.3-.9-.2-.3-.5-.3-.9-.3s-.7,0-.9.3c-.2.3-.3.5-.3.9v1.5c0,.3,0,.7.3.9.2.3.5.3.9.3ZM41.8,37.3h.9v3.1h1v.8h-1v3.4h-.9v-7.3Z"/>
  <path d="M44.5,43.8c.5,0,.9-.2,1.4-.3s.8-.4,1-.8.5-.8.7-1.2.3-1,.3-1.5v-1.9h-3.3v-.7h4.1v2.6c0,.7,0,1.3-.3,1.9s-.5,1-.9,1.5-.9.7-1.4.9-1,.3-1.6.4c0,0,0-.9,0-.9ZM50.4,37.3h.9v7.2h-.9s0-7.2,0-7.2Z"/>
  <path class="st1" d="M38.7,15s-7.5-.4-6.4,8c0,0,7.8-.7,6.4-8Z"/>
  <path d="M46.2,53.4h-21.3c-.1,0-.2-.1-.2-.2s.1-.2.2-.2h20.7l-2.8-2.8c0,0,0-.3,0-.4s.3,0,.4,0l3.2,3.2c0,0,0,.2,0,.3,0,0-.1.2-.2.2Z"/>
</svg>