<?xml version="1.0" encoding="UTF-8"?>
<svg xmlns="http://www.w3.org/2000/svg" xmlns:xlink="http://www.w3.org/1999/xlink" version="1.1" viewBox="0 0 600 600">
  <!-- Generator: Adobe Illustrator 29.5.0, SVG Export Plug-In . SVG Version: 2.1.0 Build 137)  -->
  <defs>
    <style>
      .st0 {
        fill: #ff6c18;
      }

      .st1 {
        fill: none;
        stroke: #ff6c18;
        stroke-miterlimit: 10;
        stroke-width: 6px;
      }

      .st2 {
        display: none;
      }

      .st3 {
        clip-path: url(#clippath);
      }
    </style>
    <clipPath id="clippath">
      <circle class="st1" cx="300" cy="314" r="240"/>
    </clipPath>
  </defs>
  <g id="_레이어_1" data-name="레이어_1" class="st2">
    <g>
      <g class="st3">
        <image width="1920" height="1080" transform="translate(-171.5 68.4) scale(.5)" xlink:href="../../../../../../../../../Library/Mobile Documents/com~apple~CloudDocs/선이네/아름다운재단/기부의맛/기부의맛유튜브캡쳐이미지/[기부문화캠페인] 기부주스트럭 영상 캡쳐 (5).png"/>
      </g>
      <circle class="st1" cx="300" cy="314" r="240"/>
    </g>
  </g>
  <g id="_레이어_2" data-name="레이어_2">
    <g>
      <path class="st0" d="M55.1,442.4l16.2-12.5v-.2c-.1,0-15.1,5.4-15.1,5.4-1.6.5-2.9.7-4,.4-1.1-.3-2-1.1-2.7-2.4-.7-1.3-.9-2.5-.5-3.6s1.3-2.1,2.6-3.1l12.8-9.4v-.2c-.1,0-19.5,6.5-19.5,6.5l-2.4-4.5,18.9-6.4c1-.3,1.8-.5,2.6-.7.7-.1,1.4,0,2,.1s1.1.5,1.6.9c.5.5.9,1.1,1.4,1.9.7,1.3.8,2.5.4,3.6-.4,1-1.3,2.1-2.6,3l-12.8,9.4v.2c.1,0,15.1-5.4,15.1-5.4.8-.3,1.5-.4,2.1-.5.7,0,1.3,0,1.8,0s1.1.4,1.5.8.8.9,1.2,1.6c.4.8.7,1.5.8,2.2.1.7,0,1.3-.1,1.9-.2.6-.5,1.2-1,1.7s-1.2,1.1-2,1.8l-15.8,12.1-2.4-4.5Z"/>
      <path class="st0" d="M63.5,404.9l-22.9,9-1.9-4.8,9.5-3.8-4.1-10.4-9.5,3.8-1.9-4.8,22.9-9.1,1.9,4.8-9.6,3.8,4.1,10.4,9.6-3.8,1.9,4.8Z"/>
      <path class="st0" d="M49.9,365.9l-6.3,1.8,3,10.6,6.3-1.8,1.4,4.9-14.7,4.2c-1.4.4-2.8.6-4.1.4s-2.5-.5-3.6-1.1-2-1.5-2.8-2.7c-.8-1.1-1.5-2.5-1.9-4.2-.5-1.7-.7-3.2-.6-4.6,0-1.4.4-2.7,1-3.8.6-1.1,1.4-2,2.4-2.8,1-.8,2.3-1.4,3.7-1.8l14.7-4.2,1.4,4.9ZM39.8,368.8l-4.4,1.3c-.9.3-1.6.6-2.3,1-.6.4-1.1,1-1.5,1.6-.4.6-.6,1.3-.7,2,0,.7,0,1.5.2,2.3.2.8.6,1.5,1,2.1.5.6,1,1,1.6,1.3.6.3,1.3.5,2.1.5.8,0,1.6,0,2.5-.3l4.4-1.3-3-10.6Z"/>
      <path class="st0" d="M46.6,351.5l-20.2,3.9,1.5,7.9-4,.8-4-20.8,4-.8,1.5,7.9,20.2-3.9,1,5Z"/>
      <path class="st0" d="M17.9,323.5c-.1-1.9,0-3.7.5-5.3.5-1.6,1.2-3,2.2-4.1,1-1.2,2.2-2.1,3.7-2.8,1.5-.7,3.1-1.1,5-1.2,1.8-.1,3.5,0,5.1.5,1.6.5,2.9,1.2,4.1,2.2s2.1,2.2,2.8,3.7c.7,1.5,1.1,3.2,1.3,5.1l.3,3.7c.1,1.8-.2,3.1-.9,4s-2,1.4-3.8,1.5l-19.4,1.5-.7-8.8ZM37.3,325.7c.5,0,.8-.2,1-.4.2-.2.3-.6.2-1.1v-1.3c-.3-2.8-1.1-4.8-2.6-6.1-1.4-1.3-3.6-1.8-6.4-1.6-2.8.2-4.8,1.1-6.1,2.6-1.2,1.5-1.7,3.6-1.5,6.4l.2,2.7,15.1-1.2Z"/>
      <path class="st0" d="M16.4,293.5c0-1.9.4-3.6,1.1-5.2.7-1.6,1.6-2.9,2.8-3.9s2.6-1.9,4.1-2.5c1.6-.6,3.3-.8,5.1-.8,1.8,0,3.5.4,5.1,1,1.6.6,2.9,1.5,4,2.7,1.1,1.1,2,2.5,2.6,4.1s.9,3.3.9,5.2c0,1.9-.4,3.7-1.1,5.2-.7,1.5-1.6,2.9-2.8,3.9s-2.6,1.9-4.1,2.5c-1.6.6-3.3.8-5.1.8-1.8,0-3.5-.4-5.1-1-1.6-.6-2.9-1.5-4-2.7-1.1-1.1-2-2.5-2.6-4.1-.6-1.6-.9-3.3-.9-5.2ZM38.1,294c0-1.1-.2-2.2-.6-3.1-.4-.9-1-1.7-1.8-2.4s-1.7-1.2-2.8-1.6c-1.1-.4-2.2-.6-3.5-.6-1.2,0-2.4.1-3.5.5-1.1.3-2,.8-2.8,1.5-.8.6-1.4,1.4-1.9,2.3s-.7,1.9-.7,3.1.2,2.2.6,3.1c.4.9,1,1.7,1.8,2.4.8.7,1.7,1.2,2.8,1.6,1.1.4,2.2.6,3.5.6,1.2,0,2.4-.1,3.5-.5,1.1-.3,2-.8,2.8-1.5s1.5-1.4,1.9-2.3c.5-.9.7-1.9.7-3.1Z"/>
      <path class="st0" d="M37.9,278.4l1.4-11.9c.1-1,0-1.8-.6-2.5-.5-.6-1.2-1-2.1-1.1-.9-.1-1.6,0-2.2.6-.6.5-.9,1.3-1.1,2.3l-.6,5.3c-.3,2.3-1.1,4-2.4,5.1-1.3,1.1-3.1,1.5-5.4,1.2-1.1-.1-2.1-.4-3-.8-.9-.4-1.6-1-2.2-1.6-.6-.7-1-1.5-1.2-2.4s-.3-2-.2-3.1l1.4-12,4.3.5-1.3,10.8c-.1,1,0,1.8.6,2.5.5.6,1.2,1,2.1,1.1.9.1,1.6,0,2.2-.6s.9-1.3,1.1-2.3l.5-4.5c.3-2.6,1.1-4.4,2.4-5.7,1.3-1.2,3.1-1.7,5.4-1.4,1.1.1,2.1.4,3,.9s1.6,1.1,2.1,1.8c.6.7,1,1.6,1.2,2.6.2,1,.3,2.2.1,3.4l-1.5,12.3-4.3-.5Z"/>
      <path class="st0" d="M41.9,249.9c.2-.2.4-.5.5-1l2.6-12.7,4,.8-2.9,14c-.4,1.8-1,3-2,3.6-1,.6-2.3.8-4.1.4l-19.1-4,4-19.1,4,.8-2.9,14,5.8,1.2,2.8-13.4,4,.8-2.8,13.4,5.1,1.1c.5,0,.8,0,1.1,0Z"/>
      <path class="st0" d="M54,220.6l-8.2-2.7c-.5.7-1.1,1.4-1.7,1.9-.7.5-1.4.9-2.2,1.2-.8.3-1.7.5-2.7.7-1,.1-2,.2-3.1.3l-8.5.3,1.7-5.1,8.1-.2c1.7,0,3-.3,3.8-.6.9-.4,1.5-1,1.8-2,.3-.9.2-1.8-.2-2.6-.4-.8-1.4-1.8-2.7-2.8l-6.4-5,1.7-5.1,6.6,5.3c.9.7,1.7,1.4,2.4,2.1.7.7,1.3,1.4,1.8,2.2.5.7.8,1.5,1,2.3.2.8.3,1.7.2,2.6l8.2,2.7-1.5,4.6Z"/>
      <path class="st0" d="M40.9,184.6c.8-1.7,1.8-3.2,3-4.4,1.2-1.2,2.6-2,4.1-2.6,1.5-.5,3.1-.8,4.8-.7,1.7,0,3.3.5,5,1.2,1.7.7,3.1,1.7,4.3,2.9,1.2,1.2,2.1,2.5,2.7,4,.6,1.5.9,3.1.8,4.8,0,1.7-.4,3.4-1.2,5.2-.8,1.8-1.8,3.2-3,4.4-1.2,1.2-2.6,2-4.1,2.5-1.5.5-3.1.8-4.8.7s-3.4-.5-5-1.2c-1.7-.7-3.1-1.7-4.3-2.9-1.2-1.2-2.1-2.5-2.7-4-.6-1.5-.9-3.1-.9-4.8,0-1.7.4-3.4,1.2-5.2ZM60.7,193.4c.5-1,.7-2.1.6-3.1,0-1-.3-2-.7-2.9-.5-.9-1.1-1.8-1.9-2.5-.8-.8-1.8-1.4-2.9-1.9s-2.3-.8-3.4-.9c-1.1,0-2.2,0-3.2.3-1,.3-1.9.7-2.7,1.4-.8.7-1.4,1.5-1.9,2.5s-.7,2.1-.6,3.1c0,1,.3,2,.7,2.9.5.9,1.1,1.8,1.9,2.5.8.8,1.8,1.4,2.9,1.9s2.3.8,3.4.9,2.2,0,3.2-.3,1.9-.7,2.7-1.4c.8-.7,1.4-1.5,1.9-2.5Z"/>
      <path class="st0" d="M73,157.5c1.3.7,2.3,1.6,3.2,2.6.8,1,1.4,2.1,1.7,3.3.3,1.2.3,2.5,0,3.9s-.8,2.8-1.7,4.3c-.9,1.5-1.8,2.7-2.9,3.6-1.1.9-2.2,1.5-3.4,1.9-1.2.3-2.4.4-3.7.2s-2.6-.7-3.8-1.4l-13.3-7.6,2.6-4.4,13.1,7.5c.8.5,1.6.8,2.3.9.8.1,1.5.1,2.2,0,.7-.2,1.3-.5,1.9-.9.6-.4,1.1-1,1.5-1.8s.7-1.5.8-2.2c0-.7,0-1.4-.2-2.1-.2-.7-.6-1.3-1.1-1.9s-1.2-1.1-2-1.6l-13.1-7.5,2.6-4.4,13.3,7.6Z"/>
      <path class="st0" d="M81.9,132.7c1.3.9,2.3,2.1,3,3.3.7,1.3.9,2.7.7,4.2l9.8,1.4-3.1,4.4-8.6-1.3-3.9,5.6,6.4,4.5-3,4.2-20.1-14.2,7-9.9c.9-1.2,1.8-2.2,2.8-2.8,1-.6,2-1,3-1.2,1-.1,2.1,0,3.1.3,1,.3,2,.8,3,1.5ZM80,142.9c.4-.6.7-1.2.8-1.8.1-.6,0-1.2,0-1.7-.1-.5-.4-1-.7-1.5-.3-.5-.7-.8-1.1-1.1-.4-.3-.9-.5-1.4-.7-.5-.1-1.1-.2-1.6-.1-.5,0-1.1.2-1.6.5-.5.3-1,.7-1.4,1.3l-3.6,5,7.1,5,3.6-5Z"/>
      <path class="st0" d="M88.1,112.3c1.3-1.4,2.7-2.5,4.1-3.3,1.5-.8,3-1.2,4.5-1.3,1.5,0,3,.2,4.6.7s3,1.5,4.3,2.7c1.4,1.2,2.4,2.6,3.2,4,.7,1.4,1.2,2.9,1.2,4.4s-.2,3.1-.8,4.6c-.6,1.5-1.5,3-2.8,4.5l-2.5,2.8c-1.2,1.3-2.4,2-3.5,2.1-1.1,0-2.4-.5-3.7-1.7l-14.5-13,5.9-6.6ZM99.9,127.9c.4.3.7.5,1,.5.3,0,.6-.2.9-.6l.9-1c1.9-2.1,2.8-4.1,2.7-6,0-1.9-1.1-3.9-3.3-5.7-2.1-1.9-4.1-2.8-6.1-2.6-1.9.2-3.8,1.3-5.7,3.3l-1.8,2,11.3,10.1Z"/>
      <path class="st0" d="M108.7,90.6c1.4-1.3,2.9-2.2,4.5-2.8,1.6-.6,3.2-.8,4.8-.7,1.6.1,3.1.5,4.6,1.3s2.9,1.8,4.1,3.1c1.2,1.3,2.1,2.8,2.8,4.4.6,1.6.9,3.2.9,4.8,0,1.6-.4,3.2-1.1,4.7-.7,1.5-1.8,3-3.2,4.2-1.4,1.3-2.9,2.2-4.5,2.8-1.6.6-3.2.8-4.8.7s-3.1-.5-4.7-1.3c-1.5-.8-2.9-1.8-4.1-3.1-1.2-1.3-2.1-2.8-2.8-4.4-.6-1.6-.9-3.1-.9-4.7,0-1.6.4-3.2,1.1-4.7.7-1.5,1.8-3,3.2-4.3ZM123.4,106.6c.8-.8,1.4-1.6,1.8-2.6.4-1,.5-2,.5-3,0-1-.3-2.1-.8-3.1-.5-1-1.1-2-1.9-2.9-.8-.9-1.8-1.6-2.7-2.2-1-.5-2-.9-3-1-1-.1-2,0-3,.2-1,.3-1.9.8-2.7,1.6-.8.8-1.4,1.6-1.8,2.6-.4,1-.5,2-.5,3,0,1,.3,2.1.7,3.1.5,1,1.1,2,1.9,2.9s1.8,1.6,2.7,2.2c1,.5,2,.9,3,1,1,.1,2,0,3-.2,1-.3,1.9-.8,2.7-1.6Z"/>
      <path class="st0" d="M125.8,82.9c-1-1.4-1.5-2.8-1.3-4.1.2-1.3,1-2.6,2.5-3.7,1.1-.8,2.2-1.2,3.2-1.2,1,0,2.2.4,3.4,1.2l16,9.8h.2c0-.1-12.3-16.8-12.3-16.8l4.1-3,11.6,15.8c1,1.4,1.5,2.8,1.3,4.1-.2,1.3-1,2.6-2.5,3.7-.6.4-1.2.8-1.7,1-.5.2-1.1.3-1.6.3-.5,0-1.1-.1-1.6-.3-.5-.2-1.1-.5-1.8-.9l-16-9.8h-.2c0,.1,12.3,16.8,12.3,16.8l-4.1,3-11.6-15.8Z"/>
      <path class="st0" d="M173.2,74.7l-3.3-5.6-9.5,5.6,3.3,5.6-4.4,2.6-7.8-13.2c-.8-1.3-1.2-2.5-1.5-3.8-.2-1.3-.2-2.5.2-3.7s1-2.3,1.9-3.4c.9-1.1,2.1-2.1,3.6-2.9,1.5-.9,2.9-1.5,4.3-1.7,1.4-.3,2.7-.3,3.9,0,1.2.3,2.3.8,3.3,1.6,1,.8,1.9,1.9,2.6,3.1l7.8,13.2-4.4,2.6ZM167.8,65.6l-2.3-3.9c-.5-.8-1-1.4-1.6-1.9-.6-.5-1.2-.9-1.9-1.1-.7-.2-1.4-.3-2.1-.2-.7.1-1.5.4-2.2.8-.7.4-1.3,1-1.8,1.5-.4.6-.7,1.2-.9,1.9-.1.7-.1,1.4,0,2.2.2.8.5,1.5.9,2.3l2.3,3.9,9.5-5.6Z"/>
      <path class="st0" d="M186.3,67.8l-8.9-18.6-7.3,3.5-1.7-3.7,19.1-9.2,1.7,3.7-7.3,3.5,8.9,18.6-4.6,2.2Z"/>
      <path class="st0" d="M200.4,61.4l-9.3-22.8,4.8-1.9,9.3,22.8-4.8,1.9Z"/>
      <path class="st0" d="M212.4,30.2c1.8-.6,3.6-.8,5.3-.7,1.7.1,3.2.6,4.7,1.3,1.4.8,2.6,1.8,3.7,3.1,1.1,1.3,1.9,2.8,2.4,4.5.6,1.7.8,3.4.7,5.1,0,1.7-.5,3.2-1.2,4.7s-1.7,2.7-3,3.8c-1.3,1.1-2.8,2-4.7,2.5-1.8.6-3.6.8-5.3.7-1.7-.1-3.2-.6-4.6-1.3-1.4-.8-2.6-1.8-3.7-3.1-1.1-1.3-1.9-2.8-2.4-4.6-.6-1.7-.8-3.4-.7-5.1,0-1.7.5-3.2,1.2-4.7.7-1.4,1.7-2.7,3-3.8,1.3-1.1,2.8-2,4.7-2.5ZM219.1,50.8c1.1-.3,2-.9,2.7-1.6.7-.7,1.3-1.6,1.7-2.5.4-1,.6-2,.6-3.1,0-1.1-.2-2.3-.5-3.5-.4-1.2-.9-2.2-1.6-3.1-.7-.9-1.5-1.6-2.3-2.2-.9-.6-1.8-.9-2.8-1-1-.1-2.1,0-3.1.3-1.1.3-2,.9-2.7,1.6-.7.7-1.3,1.5-1.7,2.5-.4,1-.6,2-.6,3.1,0,1.1.2,2.3.5,3.5.4,1.2.9,2.2,1.6,3.1s1.5,1.6,2.3,2.2c.9.6,1.8.9,2.8,1.1,1,.1,2.1,0,3.1-.3Z"/>
      <path class="st0" d="M231.1,30.3c-.4-1.7-.2-3.1.5-4.3.7-1.2,2-1.9,3.8-2.3,1.3-.3,2.5-.2,3.4.3.9.5,1.8,1.3,2.6,2.5l10.5,15.5h.2s-4.3-20.3-4.3-20.3l5-1.1,4,19.2c.4,1.7.2,3.1-.5,4.3-.7,1.2-2,1.9-3.8,2.3-.7.2-1.4.2-1.9.2s-1.1-.2-1.5-.4c-.5-.2-.9-.6-1.3-1-.4-.4-.8-.9-1.2-1.6l-10.5-15.5h-.2s4.3,20.3,4.3,20.3l-5,1.1-4-19.2Z"/>
      <path class="st0" d="M274,42.8l-1.8-20.5-8,.7-.4-4,21.1-1.9.4,4-8,.7,1.8,20.5-5.1.5Z"/>
      <path class="st0" d="M305,41.4v-6.5c-.1,0-11.1.2-11.1.2v6.5c.1,0-5,0-5,0l-.2-15.3c0-1.5.2-2.8.6-4,.4-1.2,1.1-2.3,2-3.2.9-.9,2-1.6,3.3-2.1,1.3-.5,2.8-.7,4.6-.8,1.7,0,3.3.2,4.6.6,1.3.4,2.5,1.1,3.4,1.9.9.8,1.6,1.9,2.1,3.1.5,1.2.7,2.5.8,4l.2,15.3h-5.1ZM304.8,30.9v-4.6c0-.9-.2-1.7-.5-2.5-.3-.7-.6-1.4-1.1-1.9-.5-.5-1.1-.9-1.7-1.2-.7-.3-1.5-.4-2.3-.4-.9,0-1.6.2-2.3.5s-1.2.7-1.7,1.2-.8,1.2-1.1,1.9c-.2.7-.4,1.6-.3,2.5v4.6c0,0,11.1-.2,11.1-.2Z"/>
      <path class="st0" d="M313.6,37.4l11.9,1.1c1,0,1.8-.1,2.4-.7.6-.5,1-1.2,1.1-2.1s-.1-1.6-.7-2.2c-.5-.6-1.3-.9-2.3-1l-5.3-.5c-2.3-.2-4-.9-5.1-2.2-1.1-1.3-1.6-3-1.4-5.3,0-1.1.3-2.1.7-3,.4-.9.9-1.6,1.6-2.2.7-.6,1.4-1,2.4-1.3s2-.4,3.1-.3l12,1.1-.4,4.3-10.8-1c-1,0-1.8.1-2.4.7-.6.5-1,1.2-1.1,2.1,0,.9.1,1.6.7,2.2s1.3.9,2.3,1l4.5.4c2.6.2,4.5,1,5.7,2.3s1.8,3.1,1.6,5.4c0,1.1-.4,2.1-.8,3-.4.9-1,1.6-1.7,2.2s-1.6,1-2.6,1.3c-1,.3-2.1.3-3.4.2l-12.3-1.1.4-4.3Z"/>
      <path class="st0" d="M342.6,45l3.6-20.3-7.9-1.4.7-4,20.9,3.7-.7,4-7.9-1.4-3.6,20.3-5.1-.9Z"/>
      <path class="st0" d="M364,45c.1.3.5.4.9.6l12.6,3.3-1,3.9-13.9-3.7c-1.7-.5-2.9-1.2-3.5-2.2-.6-1-.6-2.4-.2-4.1l5-18.8,18.8,5-1,3.9-13.9-3.7-1.5,5.7,13.2,3.5-1,3.9-13.2-3.5-1.3,5c-.1.5-.1.8,0,1.1Z"/>
      <path class="st0" d="M391.3,53.5c.1.3.4.5.9.7l12.1,4.7-1.5,3.8-13.4-5.2c-1.7-.6-2.8-1.5-3.2-2.5-.5-1-.4-2.4.3-4.1l7-18.2,4.8,1.9-6.9,17.9c-.2.5-.2.8,0,1.1Z"/>
      <path class="st0" d="M405.3,63.9l10.3-22.4,4.7,2.1-10.3,22.4-4.7-2.1Z"/>
      <path class="st0" d="M432.1,77.5l-5.5-2.9-3.6-13.5-4.8,9-4.5-2.4,11.7-21.7,4.5,2.4-5.1,9.6,13.3-5.2,5.4,2.9-15.5,6.1,4.3,15.8Z"/>
      <path class="st0" d="M440.4,77.8c0,.3.3.6.7.8l10.9,7.1-2.2,3.4-12-7.8c-1.5-1-2.4-2-2.6-3.2-.2-1.1.1-2.4,1.1-3.9l10.7-16.3,16.3,10.6-2.2,3.4-12-7.8-3.2,5,11.4,7.5-2.2,3.4-11.4-7.5-2.8,4.3c-.3.4-.4.8-.3,1Z"/>
      <path class="st0" d="M462.2,95.2c-.3.3-.6.6-.9.8-.4.2-.7.3-1.1.4-.4,0-.8,0-1.2,0-.4-.1-.8-.3-1.1-.6-.3-.3-.6-.6-.8-.9s-.3-.7-.4-1.1c0-.4,0-.8,0-1.2.1-.4.3-.8.6-1.1s.6-.6.9-.8c.4-.2.7-.3,1.1-.4.4,0,.8,0,1.2,0,.4,0,.8.3,1.1.5.3.3.6.6.8.9s.3.7.4,1.1c0,.4,0,.8,0,1.2s-.3.8-.6,1.1ZM461.2,76.5c.7-.9,1.6-1.6,2.5-2.1,1-.4,2-.7,3-.7,1,0,2,0,3,.4,1,.3,1.9.8,2.7,1.4l2.1,1.6c.8.6,1.5,1.3,2,2.2s1,1.8,1.2,2.8c.2,1,.2,2,0,3-.2,1-.6,2-1.3,2.8-.7.9-1.5,1.6-2.4,2.1-.9.5-1.8.8-2.8.9-.9.1-1.9,0-2.8-.2-.9-.3-1.8-.7-2.6-1.3h-.2c0-.1-1.2,1.4-1.2,1.4l-4.1-3.1,1.5-1.9c.8-1,1.5-1.6,2.2-1.8.7-.2,1.5,0,2.4.8l.5.4c.5.4,1,.6,1.5.8.5.1,1,.2,1.5.1.5,0,.9-.2,1.3-.4.4-.2.7-.5,1-.9.3-.4.5-.7.6-1.2.1-.4.1-.9,0-1.3,0-.4-.3-.9-.5-1.3-.3-.4-.7-.9-1.2-1.2l-.8-.6c-.5-.4-1-.6-1.5-.8-.5-.1-1-.2-1.5-.1s-.9.2-1.3.5c-.4.2-.7.5-1,.9l-4.1-3.1Z"/>
      <path class="st0" d="M475.8,102.9c1.4-1.4,2.7-2,4.1-1.8,1.4.2,2.8,1,4.3,2.5l7.3,7.2c1.5,1.5,2.4,2.9,2.6,4.2.2,1.4-.3,2.8-1.7,4.2-1.4,1.4-2.7,2-4.1,1.8-1.4-.2-2.8-1-4.3-2.5l-7.3-7.2c-1.5-1.5-2.4-2.9-2.6-4.2-.2-1.4.3-2.8,1.7-4.2ZM486.8,115.5c.6.6,1.3.6,1.9,0,.6-.6.6-1.3,0-1.9l-7.3-7.2c-.6-.6-1.3-.6-1.9,0-.6.6-.6,1.3,0,1.9l7.3,7.2ZM501.8,113l-1.9-1.9-2.7,2.8-13.5-13.2c-.8-.8-1.3-1.7-1.3-2.7,0-.9.4-1.8,1.2-2.7l5.9-6,10.3,10-2.8,2.9-6.6-6.5-2.3,2.4c-.4.4-.4.8,0,1.1l8.3,8.1,5.7-5.8,3.7,3.6-2.8,2.8,1.9,1.9-3,3.1Z"/>
      <path class="st0" d="M506.9,144.6l-12.2-14.8c-.5-.6-.8-1.2-1-1.8-.2-.6-.3-1.2-.2-1.8,0-.6.2-1.2.5-1.7.3-.6.7-1.1,1.3-1.5l3.3-2.8,3.3,4-3.1,2.6c-.2.2-.4.4-.4.7,0,.3,0,.5.3.8l11.4,13.7-3.1,2.6ZM513.8,114.4l3.4,4.2-3.2,2.6c-.7.6-1.1,1.1-1.4,1.8-.3.6-.5,1.2-.5,1.9,0,.6,0,1.2.3,1.9.2.6.5,1.2.9,1.7l-3.3,2.8c-.4-.6-.8-1.3-1.1-2-.3-.7-.6-1.4-.7-2.2-.2-.7-.3-1.5-.3-2.3,0-.8,0-1.5.3-2.3-.8,0-1.5,0-2.3-.1-.8-.1-1.5-.3-2.2-.6-.7-.3-1.4-.6-2.1-1.1-.7-.4-1.2-.9-1.8-1.4l3.3-2.8c.5.5,1,.9,1.6,1.2.6.3,1.2.5,1.8.6.6,0,1.3,0,2-.2.7-.2,1.4-.6,2-1.1l3.2-2.6ZM522.4,124.8l3.3,4-12.9,10.7-3.3-4,12.9-10.7Z"/>
      <path class="st0" d="M512.1,144.8l10.5,15.7,17.1-11.4,2.8,4.3-20.5,13.6-13.3-20,3.4-2.2ZM523.7,137c.9-.6,1.7-.9,2.6-1.1.9-.2,1.8-.2,2.7,0,.9.2,1.7.6,2.5,1.2.8.6,1.5,1.4,2.2,2.3.6,1,1.1,1.9,1.3,2.9.2,1,.3,1.9.2,2.8-.1.9-.5,1.7-1,2.5-.5.8-1.2,1.4-2,2l-1.9,1.2c-.9.6-1.7.9-2.6,1.1s-1.8.1-2.7,0c-.9-.2-1.7-.6-2.5-1.2-.8-.6-1.5-1.4-2.2-2.4-.6-1-1.1-1.9-1.3-2.9-.2-1-.3-1.9-.2-2.8.1-.9.5-1.7,1-2.5.5-.8,1.2-1.4,2-2l1.9-1.2ZM524.7,142.5c-.7.5-1.2,1-1.4,1.7s0,1.3.4,1.9c.4.7,1,1,1.6,1.1.7,0,1.4-.1,2.1-.6l1.9-1.2c.7-.5,1.2-1,1.4-1.7.2-.6,0-1.3-.4-1.9-.4-.7-1-1-1.7-1.1-.7,0-1.4.1-2.1.6l-1.9,1.2Z"/>
      <path class="st0" d="M531,172.9c.6,1,1.4,1.9,2.4,2.7,1,.8,2,1.5,3.2,1.9,1.1.5,2.3.7,3.5.8,1.2,0,2.3-.2,3.3-.7l5.8-2.9-4.2-8.5,3.9-1.9,6.5,13.1-9.7,4.8c-1.8.9-3.5,1.3-5.3,1.4-1.8,0-3.5-.3-5.2-1-1.7-.7-3.2-1.7-4.7-3-1.5-1.3-2.8-2.9-3.9-4.7l4.4-2.1ZM557.1,181.1l2.3,4.6-22.1,10.9-2.3-4.6,22.1-10.9Z"/>
      <path class="st0" d="M546.7,206.8l-3.4-9.3,3.8-1.4,8.6,23.3-3.8,1.4-3.4-9.3-4.8,1.8-1.8-4.8,4.8-1.8ZM565.8,210.3l2.5-.9,1.8,4.8-12.7,4.7-6.8-18.5c-.3-.7-.4-1.4-.4-2s.1-1.2.4-1.8c.3-.5.6-1,1.1-1.5.5-.4,1.1-.8,1.8-1l8.2-3,1.8,4.8-2.5.9,4.9,13.4ZM562,211.7l-4.9-13.4-1.6.6c-.3.1-.5.3-.6.5-.1.3-.1.5,0,.8l4.6,12.4,2.6-.9Z"/>
      <path class="st0" d="M551.7,224.2l4.6,18.3,20-5,1.2,5-23.9,6-5.8-23.3,3.9-1ZM565.3,220.8c1-.2,1.9-.3,2.9-.2.9.1,1.7.5,2.5,1,.7.5,1.4,1.2,1.9,2s1,1.8,1.2,2.9.4,2.2.3,3.2c0,1-.4,1.9-.8,2.7-.4.8-1,1.5-1.7,2-.7.6-1.6,1-2.6,1.2l-2.2.5c-1,.2-1.9.3-2.9.2s-1.7-.5-2.5-1c-.7-.5-1.4-1.2-1.9-2-.6-.8-1-1.8-1.3-3-.3-1.1-.4-2.2-.3-3.2,0-1,.4-1.9.8-2.7.4-.8,1-1.5,1.7-2,.7-.5,1.6-.9,2.6-1.2l2.2-.5ZM564.3,226.3c-.8.2-1.5.6-1.8,1.1-.4.5-.5,1.2-.3,2,.2.8.6,1.3,1.2,1.6s1.3.3,2.2.1l2.2-.5c.8-.2,1.5-.6,1.8-1.1.4-.5.5-1.2.3-2-.2-.8-.6-1.3-1.2-1.6-.6-.3-1.3-.3-2.2-.1l-2.2.5Z"/>
      <path class="st0" d="M566.5,265.3l.6,5.4h-1.1c-.8.2-1.5.5-2,1.1s-1,1.3-1.4,2.1c-.4.9-.6,1.8-.7,2.9-.1,1.1-.1,2.3,0,3.5l-3.9.5c-.1-1.3-.2-2.5-.1-3.7,0-1.2.2-2.3.5-3.4s.7-2,1.1-2.9,1.1-1.6,1.8-2.2c-.8-.4-1.6-1-2.2-1.7-.7-.7-1.3-1.6-1.8-2.5-.5-.9-.9-2-1.3-3.1s-.6-2.4-.7-3.6l3.9-.5c.2,1.2.4,2.3.8,3.4s.8,1.9,1.4,2.7,1.2,1.3,1.9,1.7c.7.4,1.4.6,2.2.5h1.1ZM581.8,272.5l.6,5.1-4.2.5.3,2.7-4.3.5-.3-2.7-6.3.7-.6-5.1,14.8-1.7ZM567.6,260.3c-.1-1.2,0-2.1.7-2.9.6-.7,1.5-1.2,2.6-1.3l8.9-1,1.7,14.3-12.7,1.5-1.2-10.5ZM576.8,264.7l-.5-4.1-3.8.4c-.5,0-.8.4-.7.9l.4,3.3,4.6-.5Z"/>
      <path class="st0" d="M555.4,288.1l-.2-4,8.8-.2.3,5.1-8.8-.9Z"/>
      <path class="st0" d="M564,307.1l.4-9.8h4c0,.1-.9,25-.9,25h-4c0-.1.4-10,.4-10l-5.7-.2.2-5.1,5.7.2ZM570.2,302.6c0-.7.2-1.4.4-2,.3-.6.6-1.1,1-1.5.4-.4,1-.7,1.6-.9.6-.2,1.3-.3,2-.3l8.1.3-.9,24.6-13-.5.7-19.7ZM578.6,317.5l.5-14.3h-3.8c-.3-.1-.6,0-.8.1-.2.2-.3.4-.3.8l-.5,13.2,4.9.2Z"/>
      <path class="st0" d="M566.4,335.3l-.8,5.3-1.1-.2c-.8-.1-1.5,0-2.2.4-.7.4-1.3,1-1.9,1.7-.6.8-1.1,1.7-1.5,2.8-.4,1.1-.7,2.3-.9,3.7l-3.9-.5c.2-1.4.5-2.7.9-3.9.4-1.2.8-2.3,1.4-3.3.5-1,1.2-1.8,1.8-2.5.7-.7,1.4-1.3,2.3-1.7-.7-.6-1.2-1.4-1.7-2.2-.5-.9-.8-1.8-1.1-2.9-.2-1.1-.4-2.3-.4-3.5s0-2.6.3-4l3.9.5c-.2,1.3-.2,2.6-.1,3.8,0,1.2.3,2.2.6,3.1.3.9.8,1.6,1.4,2.2s1.2.9,2,1l1.1.2ZM570.9,345.5l.5-3.5c-.6-.3-1.2-.7-1.6-1.2-.5-.5-.8-1-1.1-1.6-.3-.6-.5-1.2-.5-1.9,0-.7,0-1.4,0-2.2l.4-2.7c.1-.9.4-1.8.8-2.5s.9-1.4,1.5-1.9c.6-.5,1.4-.9,2.2-1.1s1.7-.3,2.7-.1c1,.1,1.8.4,2.6.9.7.4,1.3,1,1.8,1.7.5.7.8,1.4.9,2.2.2.8.2,1.7,0,2.7l-.4,2.7c-.1.7-.3,1.4-.6,2.1-.3.6-.6,1.2-1.1,1.7-.4.5-.9.9-1.5,1.2-.6.3-1.2.5-1.9.7l-.5,3.4,4.2.6-.7,5.1-14.8-2.1.7-5.1,6.3.9ZM575,331.9c-.7,0-1.3,0-1.7.3-.5.3-.8.7-.8,1.4l-.2,1.8c0,.6,0,1.2.4,1.5.4.4.9.6,1.6.7.7,0,1.3,0,1.7-.3s.8-.7.8-1.4l.2-1.8c0-.6,0-1.2-.4-1.5-.4-.4-.9-.6-1.6-.7Z"/>
      <path class="st0" d="M547.7,375.1l4.7-18.6c.2-.7.5-1.3.8-1.9.4-.5.8-.9,1.3-1.2.5-.3,1.1-.5,1.7-.6.6,0,1.3,0,2,.1l4.2,1.1-1.3,5-3.9-1c-.3,0-.6,0-.8,0-.2.1-.4.4-.5.7l-4.3,17.3-3.9-1ZM572.9,375.8l-1.3,5-16.3-4.1,1.3-5,16.3,4.1ZM562.7,360.6c.2-.9.6-1.8,1.1-2.5.5-.7,1.1-1.3,1.8-1.8.7-.5,1.5-.8,2.4-.9s1.9,0,3,.2c1.1.3,2,.7,2.7,1.2.7.6,1.3,1.2,1.7,2,.4.7.6,1.6.7,2.4,0,.9,0,1.8-.2,2.7l-.5,2.1c-.2.9-.6,1.7-1.1,2.5-.5.7-1.1,1.4-1.8,1.8-.7.5-1.5.8-2.4.9-.9.1-1.9,0-3-.2-1.1-.3-2-.7-2.7-1.2s-1.3-1.2-1.7-2c-.4-.8-.6-1.6-.7-2.4,0-.9,0-1.8.2-2.7l.5-2.1ZM569.7,360.6c-.9-.2-1.6-.2-2.2.1s-.9.8-1,1.4l-.3,1.2c-.2.6,0,1.2.2,1.7.3.5.9.9,1.9,1.1.9.2,1.6.2,2.2-.1.5-.3.9-.8,1-1.4l.3-1.2c.2-.6,0-1.2-.2-1.7s-.9-.9-1.9-1.1Z"/>
      <path class="st0" d="M563.8,403.1l-1.8,4.8-8.8-3.2-.9,2.5-4.1-1.5.9-2.5-10.3-3.8,1.8-4.8,23.1,8.5ZM551.4,379.6c-.3,1.1-.4,2.3-.3,3.5s.4,2.4.8,3.5,1.1,2.1,1.9,2.9,1.7,1.5,2.8,1.9l6.1,2.2,3.1-8.4,4.1,1.5-4.9,13.2-10.1-3.7c-1.8-.7-3.4-1.6-4.7-2.8-1.3-1.2-2.2-2.6-2.9-4.2-.7-1.6-1.1-3.4-1.1-5.3,0-1.9.1-3.9.7-5.9l4.6,1.7Z"/>
      <path class="st0" d="M537.4,403.2l3.6,1.8-2,4,5.3,2.6c1.1-1.1,2.4-1.7,3.8-2s3,0,4.6.9c1.1.5,2,1.2,2.7,2,.7.8,1.1,1.6,1.4,2.6s.3,1.9.2,2.9c-.1,1-.5,2.1-1,3.1l-4.1,8.2c-.5,1.1-1.2,2-1.9,2.7-.7.7-1.5,1.3-2.4,1.6s-1.8.5-2.9.4c-1,0-2.1-.4-3.2-.9-1.7-.8-2.8-1.9-3.5-3.2-.7-1.3-.9-2.7-.7-4.2l-5.3-2.6-2,4-3.6-1.8,11-22.3ZM534.2,418.7l4.8,2.4,2.5-5.1-4.8-2.4-2.5,5.1ZM542.3,423.8c-.2.4-.4.9-.4,1.3,0,.5,0,.9,0,1.3.1.4.3.8.6,1.2.3.4.7.7,1.3,1,.5.3,1,.4,1.5.4.5,0,.9,0,1.4-.2.4-.2.8-.4,1.1-.8.3-.3.6-.7.8-1.2l3.4-7c.2-.4.4-.9.4-1.3,0-.5,0-.9,0-1.3-.1-.4-.3-.8-.6-1.2-.3-.4-.7-.7-1.3-1-.5-.3-1-.4-1.5-.4s-.9,0-1.4.2-.8.4-1.1.8c-.3.3-.6.7-.8,1.2l-3.4,7Z"/>
      <path class="st0" d="M521.4,438.9c-.4-.2-.7-.5-.9-.8-.2-.3-.4-.7-.5-1.1s0-.8,0-1.2c0-.4.2-.8.4-1.2s.5-.7.8-.9.7-.4,1.1-.5.8-.1,1.2,0c.4,0,.8.2,1.2.4.4.2.7.5.9.8s.4.7.5,1.1c0,.4.1.8,0,1.2,0,.4-.2.8-.4,1.2-.2.4-.5.7-.8.9-.3.2-.7.4-1.1.5s-.8.1-1.2,0-.8-.2-1.2-.4ZM539.9,435.7c1,.6,1.8,1.4,2.3,2.3.6.9.9,1.9,1.1,2.9s.1,2,0,3.1c-.2,1-.6,2-1.1,2.8l-1.4,2.3c-.5.8-1.2,1.6-2,2.2s-1.7,1.1-2.7,1.5-2,.5-3,.4c-1,0-2-.4-3-1-1-.6-1.7-1.3-2.3-2.1s-1-1.7-1.2-2.6c-.2-.9-.2-1.9,0-2.8s.5-1.9,1-2.7v-.2c.1,0-1.6-1-1.6-1l2.7-4.4,2.1,1.3c1.1.7,1.7,1.3,2,2,.3.7,0,1.5-.5,2.5l-.3.5c-.3.5-.5,1.1-.6,1.6,0,.5,0,1,0,1.5.1.5.3.9.6,1.2.3.4.6.7,1,.9.4.2.8.4,1.2.5s.9,0,1.3,0c.4-.1.9-.3,1.3-.7.4-.3.8-.8,1.1-1.3l.5-.8c.3-.5.5-1.1.6-1.6s0-1,0-1.5-.3-.9-.6-1.3c-.3-.4-.6-.7-1-.9l2.7-4.4Z"/>
    </g>
  </g>
</svg>